#!OML:ASF I:\golf\golf\golf 2\Subject 1\2002-09-07\Subject1.ASF
:FULLY-SPECIFIED
:DEGREES
257
root -5.8161 17.8725 3.22666 4.10942 34.7995 -8.38085
lowerback 1.77609 -9.45053 -13.9628
upperback -1.44469 -12.8676 -4.53856
thorax -0.565075 -6.21761 2.85884
lowerneck -4.88031 22.3906 1.75601
upperneck 13.7198 32.6403 -13.0408
head 7.53986 14.8275 -1.22525
rclavicle 4.41302e-014 -3.81667e-014
rhumerus 31.6762 -29.8373 -51.6376
rradius 107.93
rwrist 1.14256
rhand -61.3887 21.1657
rfingers 7.12502
rthumb -33.4729 -5.73354
lclavicle 4.41302e-014 -3.81667e-014
lhumerus 115.375 -39.3121 45.8084
lradius 39.452
lwrist 5.12989
lhand -23.6556 1.4024
lfingers 7.12502
lthumb -177.19 211.364
rfemur -29.4464 20.4138 23.9293
rtibia 29.6402
rfoot 0.448362 26.9191
rtoes 36.4796
lfemur -0.904426 20.0683 6.88619
ltibia 34.9925
lfoot 14.3576 9.46899
ltoes -33.4477
258
root -5.82242 17.8718 3.18973 4.09363 35.17 -8.53316
lowerback 1.9984 -9.44149 -13.9192
upperback -1.3395 -12.8845 -4.44637
thorax -0.561124 -6.23166 2.9584
lowerneck -4.78315 22.3926 1.8945
upperneck 13.6812 32.6518 -13.1964
head 7.56207 14.8353 -1.28412
rclavicle 1.13904e-013 1.90833e-014
rhumerus 31.5375 -29.6917 -52.0297
rradius 107.687
rwrist 0.856572
rhand -61.5159 20.7141
rfingers 7.12502
rthumb -33.5938 -6.15887
lclavicle 1.13904e-013 1.90833e-014
lhumerus 115.329 -39.3559 45.6406
lradius 39.1218
lwrist 5.05736
lhand -23.3015 1.72102
lfingers 7.12502
lthumb -176.848 211.677
rfemur -29.6078 20.0228 23.9606
rtibia 29.5512
rfoot 0.764313 26.838
rtoes 36.7375
lfemur -1.30626 20.1095 6.82985
ltibia 35.111
lfoot 13.5185 9.52555
ltoes -33.194
259
root -5.8318 17.8664 3.14846 4.08378 35.5327 -8.76789
lowerback 2.19446 -9.44198 -13.834
upperback -1.23611 -12.9085 -4.30112
thorax -0.539663 -6.2515 3.08577
lowerneck -4.69752 22.4311 1.99993
upperneck 13.6364 32.7227 -13.3868
head 7.59043 14.8662 -1.33993
rclavicle -1.41535e-013 -7.31528e-014
rhumerus 31.5512 -29.5016 -52.6378
rradius 107.451
rwrist 0.609763
rhand -61.5551 20.1756
rfingers 7.12502
rthumb -33.631 -6.68927
lclavicle -1.41535e-013 -7.31528e-014
lhumerus 115.115 -39.4382 45.6054
lradius 38.7603
lwrist 4.70731
lhand -23.1532 1.49305
lfingers 7.12502
lthumb -176.705 211.447
rfemur -29.8698 19.6842 24.0307
rtibia 29.4665
rfoot 1.00075 26.7074
rtoes 37.0848
lfemur -1.80445 20.2199 6.80359
ltibia 35.2446
lfoot 12.8011 9.76303
ltoes -32.5513
260
root -5.83802 17.8649 3.11067 4.13474 35.8626 -8.84092
lowerback 2.32124 -9.39414 -13.8191
upperback -1.14368 -12.8578 -4.23665
thorax -0.50696 -6.23272 3.15902
lowerneck -4.64293 22.4199 2.00171
upperneck 13.8014 32.7167 -13.2874
head 7.61842 14.8626 -1.3143
rclavicle -3.26007e-014 -2.22639e-014
rhumerus 31.337 -29.3178 -53.1679
rradius 107.307
rwrist -0.254763
rhand -61.4434 20.3857
rfingers 7.12502
rthumb -33.5248 -6.50231
lclavicle -3.26007e-014 -2.22639e-014
lhumerus 114.753 -39.8307 45.7904
lradius 38.435
lwrist 4.19836
lhand -22.8062 1.23918
lfingers 7.12502
lthumb -176.37 211.188
rfemur -30.0606 19.4247 23.9441
rtibia 29.3666
rfoot 0.988768 26.573
rtoes 36.8974
lfemur -2.22232 20.4536 6.62016
ltibia 35.3847
lfoot 12.0248 10.0756
ltoes -31.5388
261
root -5.84142 17.8696 3.07267 4.1506 36.2312 -8.91747
lowerback 2.52863 -9.34379 -13.7746
upperback -1.07386 -12.8208 -4.16915
thorax -0.546643 -6.21615 3.23807
lowerneck -4.62066 22.3415 1.83126
upperneck 13.7884 32.57 -13.0972
head 7.53748 14.8087 -1.28107
rclavicle 8.79622e-014 4.45278e-014
rhumerus 30.9901 -28.9614 -53.5759
rradius 107.06
rwrist -1.38699
rhand -61.3888 21.3439
rfingers 7.12502
rthumb -33.4729 -5.55535
lclavicle 8.79622e-014 4.45278e-014
lhumerus 114.278 -40.3077 46.1419
lradius 38.1262
lwrist 3.72428
lhand -22.1026 1.34754
lfingers 7.12502
lthumb -175.69 211.284
rfemur -30.1945 19.216 23.8447
rtibia 29.2639
rfoot 0.816398 26.3958
rtoes 36.2055
lfemur -2.59376 20.7282 6.4357
ltibia 35.5065
lfoot 10.998 10.3352
ltoes -30.1893
262
root -5.84384 17.8725 3.02932 4.12293 36.6723 -9.17584
lowerback 2.74755 -9.35321 -13.6224
upperback -0.941298 -12.8552 -4.01849
thorax -0.518056 -6.24385 3.33887
lowerneck -4.82997 22.3067 1.88991
upperneck 13.7484 32.5327 -13.1924
head 7.58138 14.7784 -1.2887
rclavicle 6.17226e-014 -3.18055e-015
rhumerus 30.9409 -28.5366 -54.2238
rradius 106.669
rwrist -2.12192
rhand -61.4916 22.0294
rfingers 7.12502
rthumb -33.5707 -4.84859
lclavicle 6.17226e-014 -3.18055e-015
lhumerus 113.916 -40.4703 46.1814
lradius 37.8335
lwrist 3.44343
lhand -21.5191 1.56599
lfingers 7.12502
lthumb -175.127 211.49
rfemur -30.4186 18.8419 23.9106
rtibia 29.1749
rfoot 0.577832 26.3241
rtoes 35.1573
lfemur -3.10517 20.9991 6.34159
ltibia 35.5945
lfoot 10.1875 10.3439
ltoes -29.7375
